<svg xmlns="http://www.w3.org/2000/svg" viewBox="0 0 149.86 149.86"><defs><style>.cls-1{fill:#1d1d1b;}.cls-2{fill:none;stroke:#1d1d1b;stroke-miterlimit:10;stroke-width:12px;}</style></defs><title>2NumberAsset 2</title><g id="Layer_2" data-name="Layer 2"><g id="Layer_1-2" data-name="Layer 1"><path class="cls-1" d="M45.13,115.89V103L75.3,75q3.86-3.72,6.48-6.7a25.62,25.62,0,0,0,4-5.86,14.34,14.34,0,0,0,1.37-6.23,11.89,11.89,0,0,0-1.7-6.43,11.35,11.35,0,0,0-4.63-4.18,14.7,14.7,0,0,0-6.67-1.47,14,14,0,0,0-6.78,1.57,10.86,10.86,0,0,0-4.47,4.51,14.62,14.62,0,0,0-1.57,7h-17A27.06,27.06,0,0,1,48.07,42.8a25.11,25.11,0,0,1,10.56-9.47A34.77,34.77,0,0,1,74.27,30a36.67,36.67,0,0,1,15.87,3.2,25.33,25.33,0,0,1,10.53,8.88,23,23,0,0,1,3.77,13,25.12,25.12,0,0,1-1.89,9.48A39.76,39.76,0,0,1,95.87,74.9,152.67,152.67,0,0,1,82.34,88.53L70,100.66v.58h35.59v14.65Z"/><circle class="cls-2" cx="74.93" cy="74.93" r="68.93"/></g></g></svg>