<svg xmlns="http://www.w3.org/2000/svg" viewBox="0 0 149.86 149.86"><defs><style>.cls-1{fill:#1d1d1b;}.cls-2{fill:none;stroke:#1d1d1b;stroke-miterlimit:10;stroke-width:12px;}</style></defs><title>3NumberAsset 3</title><g id="Layer_2" data-name="Layer 2"><g id="Layer_1-2" data-name="Layer 1"><path class="cls-1" d="M74.7,118.46a40.39,40.39,0,0,1-16.49-3.2,27.75,27.75,0,0,1-11.38-8.86,22.07,22.07,0,0,1-4.28-13.05h18a9.23,9.23,0,0,0,2,5.44,12.21,12.21,0,0,0,5,3.62,18.63,18.63,0,0,0,7.07,1.28A17.09,17.09,0,0,0,82,102.24a11.89,11.89,0,0,0,4.92-4,10.65,10.65,0,0,0-.1-11.94,12.5,12.5,0,0,0-5.38-4.12,21.15,21.15,0,0,0-8.3-1.49h-7.9V67.52h7.9a17.45,17.45,0,0,0,7.18-1.4,11.6,11.6,0,0,0,4.86-3.91,10,10,0,0,0,1.74-5.86A10.08,10.08,0,0,0,81.18,47a13.86,13.86,0,0,0-6.31-1.37,16.67,16.67,0,0,0-6.67,1.3,11.89,11.89,0,0,0-4.84,3.71,9.68,9.68,0,0,0-1.94,5.63H44.24a22.17,22.17,0,0,1,4.18-12.92,27.37,27.37,0,0,1,10.95-8.75A36.91,36.91,0,0,1,75,31.4,34.87,34.87,0,0,1,90.3,34.58a25.55,25.55,0,0,1,10.25,8.59,20.89,20.89,0,0,1,3.62,12.1,16.63,16.63,0,0,1-4.41,11.88,20.24,20.24,0,0,1-11.57,6v.66q9.36,1.2,14.26,6.48a18.45,18.45,0,0,1,4.86,13.18,20.72,20.72,0,0,1-4.16,12.87,28.22,28.22,0,0,1-11.56,8.86A41.75,41.75,0,0,1,74.7,118.46Z"/><circle class="cls-2" cx="74.93" cy="74.93" r="68.93"/></g></g></svg>