<svg xmlns="http://www.w3.org/2000/svg" viewBox="0 0 149.86 149.86"><defs><style>.cls-1{fill:#1d1d1b;}.cls-2{fill:none;stroke:#1d1d1b;stroke-miterlimit:10;stroke-width:12px;}</style></defs><title>5NumberAsset 7</title><g id="Layer_2" data-name="Layer 2"><g id="Layer_1-2" data-name="Layer 1"><path class="cls-1" d="M74.43,117.88a36.25,36.25,0,0,1-15.62-3.22A27.18,27.18,0,0,1,48,105.76a22.82,22.82,0,0,1-4.18-13H61.15a10.54,10.54,0,0,0,4.14,8,14.23,14.23,0,0,0,9.14,3.07,14.55,14.55,0,0,0,7.47-1.89A13.19,13.19,0,0,0,87,96.68a17.35,17.35,0,0,0,0-15.63,13.61,13.61,0,0,0-5.19-5.29,15.25,15.25,0,0,0-7.58-2A17.84,17.84,0,0,0,67,75.34a13.13,13.13,0,0,0-5.44,4.18L45.59,76.67,49.6,32h51.81V46.62h-37l-2.2,21.23h.5a16.46,16.46,0,0,1,6.75-5.21,23.89,23.89,0,0,1,10.09-2.07A25.7,25.7,0,0,1,102.66,74a29,29,0,0,1,3.43,14.42,28.67,28.67,0,0,1-4,15.21A28,28,0,0,1,91,114.1,34.93,34.93,0,0,1,74.43,117.88Z"/><circle class="cls-2" cx="74.93" cy="74.93" r="68.93"/></g></g></svg>