<svg xmlns="http://www.w3.org/2000/svg" viewBox="0 0 149.86 149.86"><defs><style>.cls-1{fill:#1d1d1b;}.cls-2{fill:none;stroke:#1d1d1b;stroke-miterlimit:10;stroke-width:12px;}</style></defs><title>6NumberAsset 5</title><g id="Layer_2" data-name="Layer 2"><g id="Layer_1-2" data-name="Layer 1"><path class="cls-1" d="M75,117.59a38,38,0,0,1-12.6-2.2,28.42,28.42,0,0,1-10.85-7A33.87,33.87,0,0,1,44,95.57q-2.79-8-2.83-19.61a70.74,70.74,0,0,1,2.46-19.25,42.53,42.53,0,0,1,7-14.38,30.42,30.42,0,0,1,10.86-9,32.07,32.07,0,0,1,14.2-3.08,32.65,32.65,0,0,1,15,3.31,28,28,0,0,1,10.45,9,27.7,27.7,0,0,1,4.78,12.79H88.17a12,12,0,0,0-4.35-7.18,13,13,0,0,0-8.19-2.55,13.74,13.74,0,0,0-12.56,7.23q-4.29,7.21-4.37,19.8h.58a19.91,19.91,0,0,1,5.15-6.44,23.68,23.68,0,0,1,7.41-4.09,26.65,26.65,0,0,1,8.79-1.43,25.12,25.12,0,0,1,22.68,13.24A28.8,28.8,0,0,1,106.71,88a29.36,29.36,0,0,1-4,15.31,27.8,27.8,0,0,1-11.13,10.49A34.42,34.42,0,0,1,75,117.59Zm-.09-14.07a13.94,13.94,0,0,0,7.41-2,14.11,14.11,0,0,0,5.13-5.38,16.52,16.52,0,0,0,0-15.19,14.11,14.11,0,0,0-5.07-5.33,13.69,13.69,0,0,0-7.36-2A14,14,0,0,0,64.72,78a15.27,15.27,0,0,0-3.08,4.78,14.87,14.87,0,0,0-1.12,5.77,15.13,15.13,0,0,0,1.89,7.49,14.59,14.59,0,0,0,5.13,5.42A13.64,13.64,0,0,0,74.92,103.52Z"/><circle class="cls-2" cx="74.93" cy="74.93" r="68.93"/></g></g></svg>